<svg xmlns="http://www.w3.org/2000/svg" width="1792" height="1848" viewBox="0 0 1792 1848" version="1.1">
	<path d="M 0 924.001 L 0 1848.001 896.250 1847.751 L 1792.500 1847.500 1792.751 923.750 L 1793.001 0 896.501 0 L 0 0 0 924.001 M 0.498 924.500 C 0.498 1432.700, 0.611 1640.450, 0.750 1386.167 C 0.889 1131.885, 0.889 716.085, 0.750 462.167 C 0.611 208.250, 0.498 416.300, 0.498 924.500 M 287 390.445 C 287 390.690, 322.325 451.727, 365.500 526.083 C 408.675 600.439, 444 661.438, 444 661.638 C 444 661.837, 408.637 662, 365.417 662 C 317.371 662, 286.963 662.362, 287.167 662.930 C 287.914 665.017, 895.539 1710.984, 896.008 1710.992 C 896.539 1711, 1505 663.452, 1505 662.529 C 1505 662.238, 1469.675 662, 1426.500 662 C 1383.325 662, 1348 661.812, 1348 661.581 C 1348 661.351, 1383.325 600.328, 1426.500 525.975 C 1469.675 451.621, 1505 390.609, 1505 390.393 C 1505 390.177, 1230.950 390, 896 390 C 561.050 390, 287 390.200, 287 390.445 M 322.727 413.262 C 323.785 415.056, 356.729 471.756, 395.936 539.263 L 467.220 662.002 896.187 661.751 L 1325.153 661.500 1395.138 541 C 1433.629 474.725, 1466.477 418.137, 1468.134 415.250 L 1471.147 410 895.975 410 L 320.802 410 322.727 413.262 M 321.341 682.743 C 321.598 683.159, 450.962 905.933, 608.817 1177.795 C 800.184 1507.373, 896.105 1671.664, 896.663 1670.811 C 897.123 1670.107, 1026.472 1447.450, 1184.105 1176.016 L 1470.710 682.500 1404.105 682.241 C 1367.472 682.099, 1337.040 682.157, 1336.479 682.372 C 1335.917 682.586, 1236.692 852.901, 1115.979 1060.849 C 995.265 1268.797, 896.275 1438.944, 896 1438.954 C 895.725 1438.964, 796.685 1268.766, 675.911 1060.736 L 456.321 682.500 388.597 682.243 C 351.349 682.102, 321.084 682.327, 321.341 682.743 M 480.715 685.250 C 481.767 687.038, 521.524 755.496, 569.064 837.381 L 655.500 986.262 655.755 887.131 L 656.010 788 673.309 788 L 690.609 788 723.555 870.382 C 741.675 915.692, 756.950 952.863, 757.500 952.984 C 758.050 953.105, 773.350 916.145, 791.500 870.852 L 824.500 788.500 841.750 788.226 L 859 787.953 859 800.209 L 859 812.466 863.534 807.282 C 885.420 782.263, 934.348 777.368, 964.738 797.157 C 980.276 807.276, 992 826.650, 992 842.210 L 992 846 979.094 846 L 966.188 846 965.475 840.750 C 963.783 828.277, 957.126 818.108, 947.070 812.634 C 940.554 809.088, 937.280 808.127, 928.023 807.044 C 898.749 803.620, 878 817.111, 878 839.570 C 878 857.905, 888.855 866.337, 928 878.412 C 957.824 887.611, 973.928 896.635, 983.086 909.278 C 985.555 912.686, 985.971 912.914, 986.794 911.308 C 987.304 910.314, 998.652 880.813, 1012.012 845.750 L 1036.303 782 1047.992 782 L 1059.681 782 1098.149 882.573 C 1119.306 937.889, 1136.972 983.226, 1137.406 983.323 C 1138.010 983.458, 1304.812 697.545, 1311.594 684.750 L 1313.051 682 895.927 682 L 478.802 682 480.715 685.250 M 1030.573 861.799 C 1021.265 887.485, 1013.454 909.063, 1013.217 909.750 C 1012.878 910.734, 1020.258 911, 1047.960 911 L 1083.135 911 1082.429 908.750 C 1080.114 901.372, 1048.896 816.496, 1048.265 815.865 C 1047.843 815.443, 1039.882 836.114, 1030.573 861.799 M 680.461 841 C 680.753 848.975, 681.280 886.198, 681.633 923.717 L 682.276 991.934 670.701 992.217 L 659.126 992.500 777.313 1196.209 C 842.316 1308.249, 895.725 1399.925, 896 1399.934 C 896.553 1399.953, 1136 987.638, 1136 986.667 C 1136 986.333, 1130.279 985.934, 1123.287 985.780 L 1110.573 985.500 1103.795 967 C 1100.067 956.825, 1095.596 944.783, 1093.861 940.239 L 1090.706 931.979 1047.735 932.239 L 1004.764 932.500 995.133 959.250 L 985.503 986 974.943 986 C 965.809 986, 963.310 986.389, 956.441 988.882 C 945.296 992.927, 935.554 994.387, 920.500 994.267 C 910.039 994.184, 905.572 993.664, 897.628 991.608 C 885.381 988.439, 873.430 982.705, 865.250 976.074 L 859 971.008 859 981.504 L 859 992 845.858 992 L 832.715 992 833.361 927.750 C 833.717 892.413, 834.256 855.175, 834.559 845 L 835.110 826.500 833.239 830.500 C 832.210 832.700, 817.010 869.938, 799.461 913.250 L 767.555 992 757.469 992 L 747.383 992 740.242 974.250 C 736.315 964.487, 727.429 942.550, 720.495 925.500 C 713.562 908.450, 702.326 880.775, 695.527 864 C 678.190 821.230, 679.830 823.734, 680.461 841 M 859 901 L 859 933 864.885 933 L 870.770 933 871.439 938.362 C 872.940 950.374, 881.015 961.427, 892.358 966.997 C 908.437 974.892, 935.950 975.051, 950.136 967.330 C 961.309 961.248, 966.581 951.412, 965.787 938.127 C 964.696 919.869, 953.881 911.510, 917.166 900.545 C 892.149 893.074, 876.132 885.089, 865.581 874.829 C 862.284 871.623, 859.455 869, 859.293 869 C 859.132 869, 859 883.400, 859 901" stroke="none" fill="black" fill-rule="evenodd"/>
</svg>